<svg aria-hidden="true" style="position:absolute;width:0;height:0;overflow:hidden" xmlns="http://www.w3.org/2000/svg"><defs>
<symbol id="icon-advantage-apples" viewBox="0 0 32 32"><path fill="#ffa5ba" style="fill:var(--color1, #ffa5ba)" d="M29.626 21.411c-1.292-.458-2.381-.344-3.242.018.145-.877.47-1.832 1.169-2.481a1.065 1.065 0 1 0-1.448-1.561c-1.229 1.14-1.706 2.749-1.874 4.081a3.929 3.929 0 0 0-1.035-.308l-.023-.003 1.89-9.83a1.064 1.064 0 0 0-1.045-1.266h-.205c.094-.5.141-.997.138-1.47-.016-1.994-.903-3.495-2.374-4.017-1.409-.5-2.589-.35-3.507.066.146-.976.495-2.063 1.282-2.794A1.065 1.065 0 1 0 17.904.285c-1.32 1.226-1.815 2.966-1.981 4.387-.735-.348-1.644-.526-2.709-.33-1.094-1.571-2.612-2.295-4.09-1.941-1.451.348-2.358 1.115-2.9 1.962-.41-.899-.712-2.001-.452-3.036A1.065 1.065 0 0 0 3.708.799l-.002.007c-.439 1.746.095 3.475.73 4.758-1.016.138-2.118.65-3.049 1.866-.578.755-.773 1.698-.596 2.7a1.066 1.066 0 0 0-.672 1.204l-.001-.007 3.809 19.809c.096.502.535.864 1.046.864H20.21c.51 0 .949-.362 1.046-.864l.037-.195c.287.198.595.364.927.486 1.267.472 2.447.278 3.044.118.316.084.795.179 1.364.179.506 0 1.084-.075 1.68-.297 2.36-.879 3.615-3.839 3.596-6.178-.015-1.904-.865-3.34-2.275-3.839zm-6.951-9.22c-.491 4.705-4.452 7.909-9.971 7.909s-9.481-3.204-9.971-7.909h19.942zm-6.643-4.676a1.048 1.048 0 0 0 1.862 0 2.66 2.66 0 0 1 .76-.771l.01-.006c.629-.408 1.35-.46 2.203-.157.851.301.952 1.518.956 2.027a5.74 5.74 0 0 1-.19 1.453h-7.126c.236-1.19.094-2.492-.289-3.669.392.022.751.149 1.055.351l-.008-.005c.31.205.567.465.763.767l.006.01zM3.077 8.724c.55-.719 1.183-1.069 1.933-1.069h.002c.57 0 1.016.207 1.066.232.341.189.749.172 1.078-.037.332-.211.51-.592.481-.983-.006-.077-.115-1.894 1.983-2.397.877-.211 1.626.754 1.906 1.178.808 1.221 1.222 3.108.777 4.413H2.955c-.141-.443-.179-.943.122-1.336zM5.852 29.87 3.741 18.893c.138.132.28.262.428.388 2.208 1.901 5.239 2.948 8.535 2.948s6.328-1.047 8.535-2.948l.152-.134-.431 2.243-.061.02c-1.411.5-2.261 1.935-2.276 3.839-.01 1.165.297 2.483.898 3.622l-.192.998H5.852zm21.71-.438c-.943.351-1.881.017-1.916.004a1.034 1.034 0 0 0-.775.003l.007-.003c-.01.004-.96.352-1.917-.004-1.338-.499-2.223-2.556-2.21-4.166.004-.465.095-1.578.858-1.849.279-.107.601-.17.937-.175h.002c1.107 0 1.658.812 1.782 1.024a1.046 1.046 0 0 0 1.862 0c.156-.265.977-1.468 2.721-.849.763.271.854 1.383.858 1.85.013 1.609-.872 3.667-2.21 4.165z"/></symbol>
<symbol id="icon-advantage-glass" viewBox="0 0 32 32"><path fill="#ffa5ba" style="fill:var(--color1, #ffa5ba)" d="M7.773.144c-.349.188-.552.563-.552 1.006.006.813.209 1.556.614 2.2l.178.294-.338.381c-.381.425-.473.581-.644 1.088-.141.412-.154 1.162-.031 1.581.429 1.437 1.854 2.269 3.247 1.9.473-.125.762-.282 1.203-.657l.375-.312.35.175c.196.1.528.243.742.324l.381.138v.7c0 1.106.227 1.763.81 2.356s1.498.9 2.291.762c.564-.1 1.117-.381 1.491-.762.584-.594.811-1.251.811-2.356v-.7l.387-.138a9.56 9.56 0 0 0 .737-.325l.349-.175.374.312c.442.375.731.531 1.203.657 1.394.369 2.819-.463 3.248-1.9.123-.419.111-1.169-.031-1.581-.172-.507-.264-.663-.644-1.088l-.337-.381.178-.294c.405-.643.608-1.388.614-2.2 0-.444-.204-.819-.553-1.006l-.264-.144H8.036l-.264.144zm14.736 1.955c0 .019-.179.313-.399.662-.651 1.032-.626 1.256.239 2.17.314.331.602.662.645.737.233.463-.234 1.038-.749.919-.124-.026-.394-.243-.787-.631-.786-.775-1.056-.863-1.658-.518-.694.399-1.578.806-2.008.924-.608.175-.817.307-.976.637-.129.256-.141.363-.141 1.363 0 1.231-.05 1.431-.399 1.6-.252.125-.301.125-.553 0-.35-.169-.399-.369-.399-1.6 0-1-.013-1.107-.135-1.363-.166-.324-.374-.462-.982-.637-.528-.15-1.308-.493-1.738-.774-.405-.262-.762-.363-1.043-.313-.185.038-.369.181-.86.662-.405.394-.694.625-.817.65-.509.119-.976-.463-.742-.919.043-.075.332-.406.644-.737.865-.913.89-1.137.239-2.169-.221-.349-.399-.643-.399-.662 0-.025 2.929-.037 6.508-.037s6.508.013 6.508.037zM5.925 13.206c-.314.212-.485.512-.485.844 0 .225 3.119 16.925 3.229 17.275.055.194.282.425.522.55C9.418 32 9.578 32 16 32s6.582 0 6.809-.125c.239-.125.467-.356.522-.55.111-.35 3.229-17.05 3.229-17.275 0-.331-.172-.631-.485-.844l-.209-.144H6.134l-.209.144zm18.21 2.275c-.061.5-.418 1.587-.682 2.081-1.283 2.375-3.715 3.819-6.729 3.987-2.278.132-4.205-.331-5.82-1.393a7.057 7.057 0 0 1-2.247-2.402l-.018-.035c-.307-.544-.712-1.713-.774-2.238l-.043-.356h16.356l-.043.356zM9.83 21.919c2.634 1.775 6.569 2.244 9.885 1.169a10.708 10.708 0 0 0 3.18-1.687c.276-.219.294-.219.264-.082-.019.081-.381 1.994-.804 4.244s-.78 4.156-.798 4.232l-.031.143H10.474l-.031-.143c-.018-.075-.374-1.981-.798-4.232s-.786-4.163-.804-4.243c-.031-.138-.013-.138.264.081.16.125.491.356.724.518z"/></symbol>
<symbol id="icon-advantage-heart" viewBox="0 0 32 32"><path fill="#ffa5ba" style="fill:var(--color1, #ffa5ba)" d="M8.048.069c-2.922.612-5.19 3.013-5.931 6.278-.271 1.14-.259 3.337.013 4.586.604 2.772 1.948 5.233 4.068 7.37 1.899 1.921 3.563 3.085 6.202 4.298l1.38.648V32h1.48v-8.271l.37.108a1.547 1.547 0 0 0 .751-.002l-.011.002.37-.109v8.271h1.48v-8.763l1.318-.6c2.553-1.176 4.402-2.449 6.202-4.273 2.874-2.917 4.34-6.23 4.34-9.832.013-3.949-2.059-7.154-5.314-8.246-.691-.24-1.048-.276-2.355-.264-1.368.012-1.677.06-2.712.384-1.22.397-2.417 1.021-3.205 1.668l-.456.384-.666-.492C13.658.705 11.907.093 9.849.009c-.716-.024-1.53 0-1.8.06zm2.811 1.489c.518.096 1.22.3 1.59.444.789.324 2.108 1.152 2.626 1.645.801.756 1.024.744 1.936-.072 1.43-1.297 3.736-2.185 5.634-2.185 2.577 0 4.932 2.017 5.684 4.862a9.28 9.28 0 0 1 .271 1.812c.049 1.08.013 1.116-1.664 1.752-1.357.516-2.491.768-4.439.984-1.245.144-1.504.216-1.886.493-.789.588-.913 1.02-.913 3.469 0 1.837-.024 2.185-.209 2.377-.259.288-.716.276-1.024-.024-.234-.228-.246-.396-.246-2.821 0-2.689-.074-3.145-.58-3.685-.111-.12-.986-.588-1.935-1.056-1.073-.504-2.145-1.128-2.787-1.62C9.823 5.616 8.454 4.956 5.914 4.56a36.576 36.576 0 0 1-1.369-.24c-.111-.084.555-.936 1.159-1.464 1.43-1.273 3.058-1.681 5.154-1.297zM6.778 6.191c1.258.312 2.675 1.02 3.97 1.981.543.396 1.233.9 1.542 1.128.826.612 2.194 1.38 3.23 1.812.506.216.986.468 1.073.576.111.132.147.888.147 2.773 0 2.269.038 2.653.235 3.073.407.864 1.06 1.26 2.059 1.26.641 0 1.085-.192 1.553-.685.531-.54.592-.876.592-3.168 0-2.605-.025-2.557 1.43-2.677 1.479-.132 3.316-.529 4.537-.973.616-.228 1.147-.384 1.171-.348.136.132-.789 2.485-1.331 3.397-.863 1.477-1.541 2.317-2.848 3.542-1.899 1.776-4.513 3.3-7.176 4.213l-.962.336-.949-.336c-2.848-.96-5.363-2.485-7.386-4.442-2.564-2.461-3.908-5.066-4.241-8.15-.123-1.153.062-3.133.346-3.601.099-.168 1.862.012 3.008.288z"/></symbol>
<symbol id="icon-arrow-button" viewBox="0 0 16 32"><path fill="#fff" style="fill: var(--color1, #fff)" d="M14.019 17.062l-8.5 8.5c-0.588 0.588-1.538 0.588-2.119 0l-1.413-1.412c-0.587-0.588-0.587-1.538 0-2.119l6.025-6.025-6.025-6.025c-0.587-0.588-0.587-1.537 0-2.119l1.406-1.425c0.587-0.588 1.537-0.588 2.119 0l8.5 8.5c0.594 0.588 0.594 1.538 0.006 2.125z"></path></symbol>
<symbol id="icon-arrow-right" viewBox="0 0 32 32"><path d="M21.172 18H4v-4h17.172l-6.586-6.586 2.828-2.828L28.828 16 17.414 27.414l-2.828-2.828L21.172 18z"/></symbol>
<symbol id="icon-customer-house" viewBox="0 0 32 32"><path fill="#d31342" style="fill:var(--color3, #d31342)" d="M31.6 15.432a1.357 1.357 0 0 0-.122-2.032l-.003-.002L17.174 1.723a1.869 1.869 0 0 0-1.146-.389c-.448 0-.86.157-1.183.419l.004-.003L.5 14.017a1.348 1.348 0 0 0-.07 2.037l.001.001.36.347c.595.581 1.56.651 2.152.155l1.072-.896v13.117c0 .803.701 1.456 1.563 1.456h5.592c.864 0 1.563-.653 1.563-1.456v-9.176h7.133v9.208a1.42 1.42 0 0 0 1.421 1.421l.048-.001h-.002 5.928c.861 0 1.56-.651 1.56-1.456V15.846s.299.24.664.541c.363.299 1.131.059 1.709-.536l.408-.419z"/></symbol>
<symbol id="icon-customer-quotation-marks" viewBox="0 0 32 32"><path fill="#e1e1e1" style="fill:var(--color4, #e1e1e1)" d="M23.714 4.148c1.428 0 2.777.385 4.047 1.156s2.302 1.879 3.095 3.324c.762 1.445 1.143 3.148 1.143 5.107s-.476 3.87-1.428 5.733c-.318.674-.889 1.541-1.715 2.601a47.007 47.007 0 0 1-2.38 2.746l-3 3.035-2.143-3.565a16.477 16.477 0 0 0 3.931-3.442l.022-.027C26.429 19.467 27 18.231 27 17.106c0-.578-.127-1.044-.38-1.397a6.194 6.194 0 0 1-3.714 1.205c-.984 0-1.921-.305-2.809-.916a6.394 6.394 0 0 1-2.174-2.28l-.016-.032c-.571-.932-.857-1.895-.857-2.891 0-1.125.333-2.2 1-3.228a7.635 7.635 0 0 1 2.491-2.486l.033-.019c1.015-.61 2.062-.916 3.142-.916zm-17.095 0c1.428 0 2.777.385 4.047 1.156s2.302 1.879 3.095 3.324c.762 1.445 1.143 3.148 1.143 5.107 0 1.381-.175 2.617-.524 3.71-.35 1.124-.952 2.296-1.81 3.517-.825 1.156-1.603 2.12-2.333 2.891-.73.803-2 2.136-3.81 3.999l-2.143-3.565a16.477 16.477 0 0 0 3.931-3.442l.022-.027c1.143-1.349 1.714-2.585 1.714-3.71 0-.578-.127-1.044-.381-1.397a6.194 6.194 0 0 1-3.714 1.205c-.984 0-1.921-.305-2.809-.916a6.394 6.394 0 0 1-2.174-2.28l-.016-.032C.286 12.756 0 11.793 0 10.797c0-1.125.318-2.2.952-3.228a7.635 7.635 0 0 1 2.491-2.486l.033-.019c1.015-.61 2.062-.916 3.143-.916z"/></symbol>
<symbol id="icon-hero-big-circle" viewBox="0 0 32 32"><path fill="#ffa5ba" style="fill:var(--color1, #ffa5ba)" d="M32 16c0 8.837-7.163 16-16 16S0 24.837 0 16 7.163 0 16 0s16 7.163 16 16z"/></symbol>
<symbol id="icon-hero-little-circle" viewBox="0 0 32 32"><path fill="#fff" style="fill:var(--color5, #fff)" d="M32 16c0 8.837-7.163 16-16 16S0 24.837 0 16 7.163 0 16 0s16 7.163 16 16z"/></symbol>
<symbol id="icon-menu-burger" viewBox="0 0 32 32"><path fill="none" stroke="#d41443" style="stroke:var(--color2, #d41443)" stroke-width="1.6" d="M0 6.4h32M0 16h32M0 25.6h32"/></symbol>
<symbol id="icon-menu-close" viewBox="0 0 32 32"><path fill="none" stroke="#fff" style="stroke:var(--color5, #fff)" stroke-width="2" d="m2.52 2 26.96 28M2 29.48 30 2.52"/></symbol>
<symbol id="icon-social-facebook" viewBox="0 0 32 32"><path fill="#fff" style="fill:var(--color5, #fff)" d="M22.143 15.971H18.11v14.865h-6.112V15.971H9.092v-5.222h2.906V7.367c0-2.417 1.142-6.204 6.167-6.204l4.527.019v5.072h-3.284c-.538 0-1.297.272-1.297 1.425v3.073h4.567l-.534 5.219z"/></symbol>
<symbol id="icon-social-github" viewBox="0 0 32 32"><path fill="#fff" style="fill:var(--color5, #fff)" d="M16 0C7.211 0 0 7.211 0 16c0 7.499 5.262 14.312 12.25 16v-5.293a3.921 3.921 0 0 1-2.062-.06l.028.007c-.946-.278-1.714-.909-2.285-1.869-.363-.613-1.008-1.28-1.68-1.23l-.165-1.867c1.454-.125 2.71.886 3.456 2.139.333.558.715.885 1.205 1.029.472.141.981.074 1.573-.136.149-1.186.693-1.629 1.104-2.256-4.168-.621-5.829-2.832-6.488-4.576-.874-2.318-.405-5.213 1.139-7.043.03-.035.085-.128.064-.192-.709-2.141.154-3.91.186-4.098.818.24.95-.243 3.552 1.336l.448.27c.189.112.128.048.317.032a13.246 13.246 0 0 1 3.349-.469h.01c1.136.014 2.272.176 3.403.483l.146.016c-.013-.003.04-.01.128-.062 3.248-1.968 3.131-1.325 4.003-1.608.032.189.882 1.987.182 4.099-.096.291 2.816 2.957 1.202 7.235-.659 1.744-2.32 3.957-6.486 4.578.534.816 1.176 1.248 1.173 2.928v6.606c6.986-1.688 12.25-8.501 12.25-16 0-8.789-7.211-16-16-16z"/></symbol>
<symbol id="icon-social-telegram" viewBox="0 0 32 32"><path fill="#fff" style="fill:var(--color5, #fff)" d="m12.614 19.671-.492 6.444c.703 0 1.007-.282 1.372-.62l3.292-2.938 6.822 4.665c1.252.65 2.134.307 2.473-1.075L30.558 6.56c.399-1.727-.669-2.401-1.887-1.978L2.348 13.989c-1.796.652-1.77 1.585-.305 2.012l6.729 1.952 15.631-9.129c.736-.455 1.405-.204.855.252L12.614 19.672z"/></symbol></defs></svg>