<?xml version="1.0" standalone="no"?>
<!DOCTYPE svg PUBLIC "-//W3C//DTD SVG 20010904//EN"
 "http://www.w3.org/TR/2001/REC-SVG-20010904/DTD/svg10.dtd">
<svg version="1.0" xmlns="http://www.w3.org/2000/svg"
 width="700.000000pt" height="700.000000pt" viewBox="0 0 700.000000 700.000000"
 preserveAspectRatio="xMidYMid meet">
<metadata>
Created by potrace 1.14, written by Peter Selinger 2001-2017
</metadata>
<g transform="translate(0.000000,700.000000) scale(0.100000,-0.100000)"
fill="#000000" stroke="none">
<path d="M3238 6996 c-1 -2 -38 -6 -80 -10 -137 -12 -351 -49 -468 -81 -30 -9
-62 -17 -70 -19 -47 -12 -303 -101 -400 -141 -1291 -525 -2087 -1578 -2207
-2921 -15 -166 -6 -723 11 -753 2 -3 7 -37 11 -76 9 -92 48 -292 86 -435 187
-718 613 -1363 1184 -1793 50 -38 98 -75 108 -83 9 -8 20 -14 23 -14 3 0 23
-14 44 -30 21 -17 41 -30 45 -30 3 0 25 -13 48 -29 89 -61 384 -208 637 -318
92 -40 400 -147 455 -157 11 -3 62 -14 113 -25 51 -12 109 -24 129 -27 19 -3
45 -8 57 -10 11 -2 41 -7 66 -10 25 -3 56 -7 70 -9 142 -26 653 -27 800 -1 14
3 48 7 75 11 28 3 57 8 65 10 8 2 32 6 53 9 130 20 361 81 517 138 408 148
818 390 1124 662 75 67 240 232 286 286 12 14 29 34 38 45 284 335 530 755
680 1160 152 407 217 759 217 1155 -1 361 -51 666 -166 1012 -67 202 -197 491
-287 638 -12 19 -25 42 -29 50 -13 28 -166 255 -226 335 -146 194 -364 425
-558 590 -136 116 -125 107 -264 207 -486 349 -1072 583 -1610 644 -33 3 -69
8 -80 11 -22 5 -491 13 -497 9z"/>
</g>
</svg>
